<?xml version="1.0" encoding="UTF-8"?>
<svg id="svg8" width="749.86pt" height="750pt" version="1.1" viewBox="0 0 749.86 750" xmlns="http://www.w3.org/2000/svg" xmlns:cc="http://creativecommons.org/ns#" xmlns:dc="http://purl.org/dc/elements/1.1/" xmlns:rdf="http://www.w3.org/1999/02/22-rdf-syntax-ns#">
 <metadata id="metadata5">
  <rdf:RDF>
   <cc:Work rdf:about="">
    <dc:format>image/svg+xml</dc:format>
    <dc:type rdf:resource="http://purl.org/dc/dcmitype/StillImage"/>
    <dc:title/>
   </cc:Work>
  </rdf:RDF>
 </metadata>
 <g id="layer1" transform="translate(662.79 -114.49)">
  <g id="g2288" transform="matrix(12.033 0 0 12.033 7312.6 -9538)">
   <path id="path485" d="m-620.53 819.56c1.3906-4e-3 2.4375-1.0976 2.4414-2.5625v-0.0273c0-1.4648-1.0859-2.5977-2.4688-2.6016-1.3828 4e-3 -2.4219 1.0976-2.4258 2.6016 0 1.457 1.0781 2.5898 2.4531 2.5898"/>
   <path id="path487" d="m-648.43 814.32c-1.0586 0-1.9023 0.83593-2.1055 2.0703h4.1758c-0.15235-1.0469-0.75-2.0703-2.0703-2.0703"/>
   <path id="path489" d="m-662.79 844.54v2.6016c5.8203-2.3828 11.379-5.2422 16.773-8.0156l-0.73437-0.27344c-6.0312-2.1992-10.523-0.65625-16.039 5.6875"/>
   <path id="path491" d="m-641.64 840.75-3.2734-1.2266c-1.5508 0.91406-3.1055 1.8633-4.6875 2.8281-4.2344 2.5859-8.6016 5.25-13.18 7.1992l-4e-3 9.3984c0 3.0625 2.4805 5.5391 5.5391 5.5391h51.25c3.0469 0 5.5273-2.4766 5.5273-5.5391v-7.8945c-14.387 1.1211-29.191-5.793-41.172-10.305"/>
   <path id="path493" d="m-630.43 833.35c-4.5742 0.9375-8.8555 2.9727-13.16 5.418 16.27 7.168 30.414 10.203 43.117 9.2695v-2.7109c-8.7422-8.1211-16.73-14.703-29.957-11.977"/>
   <path id="path495" d="m-658.75 811.39h1.4648v9.1953h-1.4648zm5.5859 0.082h1.7695l-3.9258 4.5156 3.9258 4.5352h-1.7695l-3.8438-4.5391zm4.7617 1.6641c2.0508 4e-3 3.4297 1.582 3.4336 3.8867h-0.082l0.082 4e-3 -0.0195 0.51563h-5.5469c0.19531 1.2305 1.0859 2.0391 2.2969 2.0391 0.82813 0 1.4883-0.29297 2.1133-0.94531l0.0977-0.10547 0.87891 0.78515-0.0586 0.0625-0.043 0.0469c-0.84375 0.94531-1.7852 1.375-3.0078 1.375h-8e-3c-2.0898-4e-3 -3.6602-1.6562-3.668-3.832 8e-3 -2.1719 1.5156-3.8281 3.5312-3.832m4.2812 0.15234h1.3516v0.92969c0.5625-0.70703 1.3242-1.082 2.2656-1.082 1.7188 4e-3 2.8398 1.1836 2.8438 2.9726v4.5274h-1.3516l4e-3 -4.2695c-0.0117-1.2578-0.66407-1.9688-1.8008-1.9727-1.1602 4e-3 -1.957 0.83594-1.9609 2.0547v4.1875h-1.3516zm7.8008 0h1.3516v0.88672c0.42969-0.53516 1.0703-1.0391 2.1289-1.0391 0.98828 0 1.7969 0.46484 2.2734 1.2852 0.62109-0.85156 1.4375-1.2852 2.4688-1.2852 1.6953 4e-3 2.7656 1.1641 2.7695 2.9883v4.5117h-1.3516v-4.2656c-0.0117-1.2852-0.60547-1.9726-1.6797-1.9766-0.89844 4e-3 -1.793 0.60937-1.7969 2.0273v4.2148h-1.3398v-4.293c-8e-3 -1.2461-0.61328-1.9453-1.6562-1.9492-1.0508 0-1.8125 0.85547-1.8164 2.0703v4.1719h-1.3516zm11.961 3.6797c4e-3 -2.1445 1.6836-3.8281 3.8281-3.832 2.1406 4e-3 3.8125 1.6758 3.8164 3.832-4e-3 2.1445-1.6875 3.8281-3.8438 3.832-2.1289-4e-3 -3.7969-1.6758-3.8008-3.8047zm8.5508-3.7265h1.3516v1.4297c0.60157-0.97265 1.5391-1.5547 2.6094-1.5547l0.12109 4e-3 0.14453 4e-3v1.4258h-0.23047c-1.6094 8e-3 -2.6367 1.1875-2.6445 3.082v2.957h-1.3516zm7.832-0.10547c2.0547 8e-3 3.4297 1.582 3.4375 3.8867h-0.0859 0.082l-0.0195 0.51562h-5.5469c0.19921 1.2344 1.0898 2.043 2.2969 2.0469 0.82422-4e-3 1.4883-0.29688 2.1094-0.94922l0.10156-0.10547 0.8789 0.78515-0.0586 0.0625-0.043 0.0469c-0.83984 0.94531-1.7852 1.375-3.0078 1.375h-8e-3c-2.0898-8e-3 -3.6641-1.6562-3.668-3.832 4e-3 -2.1719 1.5156-3.8242 3.5312-3.832m-37.816 24.648c0.42578 0.19532 0.84375 0.3711 1.2656 0.5586 3.9492-2.0938 7.5117-4.2109 10.941-5.6289 13.547-5.6094 23.32-5.4102 33.113 2.5703v-27.578c0-3.0586-2.4805-5.543-5.5274-5.543h-51.25c-3.0586 0-5.5391 2.4844-5.5391 5.543l4e-3 30.113c5.4453-3.9062 10.789-2.875 16.992-0.0352"/>
   <path id="path497" d="m-608 814.32c-1.0625 0-1.9062 0.83593-2.1094 2.0703h4.1758c-0.14844-1.0469-0.75-2.0703-2.0664-2.0703"/>
  </g>
 </g>
</svg>
