<?xml version="1.0" encoding="UTF-8" standalone="no"?>
<!-- Created with Inkscape (http://www.inkscape.org/) -->

<svg
   width="127.69701mm"
   height="29.380491mm"
   viewBox="0 0 127.69701 29.380491"
   version="1.1"
   id="svg1"
   xml:space="preserve"
   xmlns="http://www.w3.org/2000/svg"
   xmlns:svg="http://www.w3.org/2000/svg"><defs
     id="defs1"><pattern
       id="EMFhbasepattern"
       patternUnits="userSpaceOnUse"
       width="6"
       height="6"
       x="0"
       y="0" /></defs><g
     id="layer1"
     transform="translate(-28.627423,-60.864179)"><path
       id="path3"
       style="fill:#000000;stroke-width:0.223141"
       d="m 144.12497,83.403444 c -2.5473,-0.12155 -3.87716,-0.47409 -4.722,-1.25178 -0.7374,-0.67879 -1.3457,-2.09216 -1.70762,-3.96757 -0.27063,-1.40238 -0.27167,-2.98461 -0.003,-4.54954 0.52185,-3.03955 1.61109,-4.065749 4.83906,-4.558957 0.58534,-0.08944 1.11327,-0.103395 3.83636,-0.101444 1.73669,0.0013 3.23096,0.02176 3.3206,0.04556 l 0.16299,0.0433 -0.0154,2.344791 -0.0154,2.34479 h -0.32462 -0.32461 l -0.0383,-0.67874 c -0.0447,-0.7936 -0.16452,-1.35452 -0.38135,-1.78592 -0.35129,-0.69892 -1.04124,-1.288429 -1.78482,-1.524978 -0.57116,-0.181699 -1.9387,-0.226231 -2.58279,-0.08411 -1.03705,0.228835 -1.67623,0.613157 -2.137,1.284938 -0.44585,0.65002 -0.75077,1.49152 -0.90358,2.4937 -0.11462,0.75167 -0.1146,5.12826 1e-5,5.75455 0.2218,1.21194 0.88537,2.45155 1.56164,2.91732 0.65161,0.44879 1.33681,0.58955 2.70043,0.55479 0.88716,-0.0226 1.12902,-0.071 1.24825,-0.24954 0.0714,-0.107 0.0533,-4.12334 -0.0202,-4.46598 -0.0757,-0.35313 -0.36049,-0.70718 -0.7137,-0.88737 -0.23731,-0.12107 -0.86824,-0.22514 -1.38362,-0.22824 -0.32568,-0.002 -0.376,-0.0485 -0.37429,-0.34602 0.002,-0.31925 -0.1193,-0.30733 2.95398,-0.29085 l 2.85868,0.0153 v 3.44898 3.44898 l -0.17706,0.0433 c -0.29244,0.0715 -2.57818,0.22352 -3.77734,0.25126 -0.61677,0.0143 -1.55963,0.005 -2.09525,-0.0205 z m -68.567994,-0.074 c -0.0331,-0.041 -1.10951,-2.27894 -2.39193,-4.97325 -2.54573,-5.34849 -3.30145,-6.90604 -3.43289,-7.07517 -0.0495,-0.0636 -0.12485,-0.0958 -0.17739,-0.0756 -0.11309,0.0434 -0.1138,0.16824 -0.0301,5.26213 0.0419,2.54825 0.0893,3.99573 0.14575,4.44852 0.1639,1.31453 0.58672,1.80814 1.65658,1.93388 0.25996,0.0306 0.31678,0.0588 0.34514,0.17184 0.0847,0.33733 0.19803,0.32429 -2.6727,0.30755 l -2.63465,-0.0153 v -0.20549 -0.20549 l 0.47729,-0.0678 c 1.37958,-0.19608 1.64199,-0.67915 1.7918,-3.29853 0.18322,-3.2036 0.20913,-6.97329 0.057,-8.29246 -0.12628,-1.094906 -0.55006,-1.473732 -1.79488,-1.604479 -0.15802,-0.0166 -0.17903,-0.0424 -0.19538,-0.239925 l -0.0183,-0.221329 h 2.91788 c 2.26249,0 2.93155,0.01658 2.97874,0.07378 0.0335,0.04058 0.35212,0.711203 0.7081,1.490273 1.62037,3.54631 3.22584,6.90308 3.56487,7.45354 0.0903,0.14653 0.138,0.17857 0.19527,0.13104 0.0728,-0.0604 0.47638,-0.9319 2.03653,-4.39744 0.39457,-0.87646 0.84545,-1.87244 1.00195,-2.21329 0.1565,-0.34084 0.46354,-1.01811 0.6823,-1.505031 0.21876,-0.486924 0.42416,-0.918792 0.45645,-0.959708 0.0459,-0.05823 0.61783,-0.07105 2.63313,-0.05902 l 2.57444,0.01537 v 0.202623 0.202623 l -0.4383,0.07385 c -0.75808,0.127733 -1.11165,0.497472 -1.23504,1.291533 -0.0689,0.44314 -0.0234,9.54899 0.0511,10.22377 0.0662,0.59983 0.23934,1.01536 0.5341,1.28166 0.29104,0.26294 0.61952,0.3497 1.18099,0.31193 0.87281,-0.0587 1.2411,-0.39004 1.73683,-1.56251 0.44212,-1.04566 2.44517,-7.20031 3.00133,-9.22198 0.33738,-1.22642 0.35739,-1.34417 0.27832,-1.637799 -0.11944,-0.443574 -0.52589,-0.67322 -1.30244,-0.735884 -0.19259,-0.01553 -0.20781,-0.03166 -0.22489,-0.237997 l -0.0183,-0.221329 h 2.74456 c 1.76956,0 2.75754,0.02102 2.7811,0.05913 0.0201,0.03252 0.27181,0.756271 0.55936,1.608329 3.17299,9.40206 3.37501,9.98044 3.77765,10.81549 0.367904,0.76298 0.697474,1.02208 1.483394,1.16616 l 0.43576,0.0799 v 0.23278 0.23277 h -3.806864 -3.80685 l -0.0171,-0.23608 -0.0171,-0.23608 0.49784,-0.096 c 0.84682,-0.16336 1.26354,-0.44641 1.39925,-0.9504 0.0526,-0.19518 0.0454,-0.35185 -0.0359,-0.77935 -0.11736,-0.61777 -0.42716,-1.68059 -0.68397,-2.34653 l -0.17772,-0.46083 h -2.40642 c -2.21902,0 -2.41326,0.008 -2.49427,0.10329 -0.0983,0.11557 -0.47156,1.34202 -0.61521,2.02146 -0.0515,0.24347 -0.0977,0.69498 -0.1028,1.00336 -0.008,0.49435 0.007,0.58695 0.12871,0.78255 0.1865,0.29997 0.54748,0.49817 1.13904,0.62544 l 0.49366,0.10619 v 0.202 0.202 l -6.00713,0.015 c -6.53198,0.0164 -6.12539,0.0363 -6.04176,-0.29689 0.0293,-0.11684 0.0946,-0.14362 0.50859,-0.20877 1.05434,-0.1659 1.48707,-0.58654 1.65074,-1.60462 0.0661,-0.41143 0.0914,-10.1259 0.0267,-10.29434 -0.0667,-0.17387 -0.14835,-0.0946 -0.34458,0.33454 -0.61052,1.33524 -5.28562,11.91048 -5.28562,11.95627 0,0.0301 -0.0363,0.0849 -0.0807,0.12178 -0.0607,0.0504 -0.0957,0.0485 -0.14097,-0.008 z m 18.95261,-5.80757 c 0.24759,-0.0339 0.27383,-0.0525 0.27383,-0.19427 0,-0.6566 -1.96376,-6.278 -2.22264,-6.36247 -0.0753,-0.0246 -0.19541,0.27052 -0.58208,1.42994 -0.7228,2.16732 -1.44479,4.62546 -1.44479,4.91901 0,0.16359 0.0192,0.18119 0.22132,0.20233 0.38439,0.0402 3.46813,0.0447 3.75436,0.005 z m 8.489554,5.80979 c -0.0788,-0.0788 -0.0924,-0.27877 -0.0256,-0.37591 0.0238,-0.0347 0.28239,-0.10921 0.57455,-0.16555 0.86346,-0.16653 1.28005,-0.46993 1.46089,-1.06397 0.0526,-0.1727 0.0736,-0.80776 0.0736,-2.21913 v -1.97721 l -0.16985,-0.44265 c -0.2045,-0.53293 -0.78205,-1.69623 -1.3455,-2.71009 -0.60048,-1.0805 -2.15285,-3.66386 -2.40216,-3.997539 -0.28621,-0.38307 -0.70194,-0.587373 -1.394384,-0.685242 l -0.53119,-0.07508 -0.0183,-0.220436 -0.0183,-0.220436 h 3.518884 3.51888 l -0.0183,0.221328 -0.0183,0.221329 -0.34122,0.04237 c -0.66995,0.0832 -0.90861,0.300554 -0.85475,0.778446 0.0419,0.37149 0.30626,0.90137 1.34647,2.69858 0.49546,0.85602 1.02377,1.7687 1.17403,2.02817 0.15026,0.25946 0.31749,0.48029 0.37163,0.49071 0.11951,0.023 0.251,-0.22984 0.94556,-1.81828 0.76044,-1.7391 1.47608,-3.39072 1.72622,-3.983916 0.1232,-0.292156 0.2498,-0.564389 0.28134,-0.604965 0.084,-0.108012 11.72353,-0.108012 11.85596,0 0.12165,0.09922 1.42377,3.340291 1.38381,3.444411 -0.0402,0.10469 -0.52967,0.11138 -0.60802,0.008 -0.0309,-0.0406 -0.10369,-0.20658 -0.16187,-0.36888 -0.38587,-1.07641 -1.33127,-2.070294 -2.27538,-2.392085 -0.31093,-0.105976 -0.56312,-0.13648 -1.33061,-0.160945 -0.84566,-0.02696 -0.95796,-0.01921 -1.04958,0.07242 -0.0963,0.09628 -0.10152,0.452197 -0.085,5.7772 0.0165,5.30276 0.0247,5.6955 0.12498,5.99351 0.26294,0.7811 0.58331,1.04044 1.48439,1.20161 0.40949,0.0733 0.41332,0.0757 0.43228,0.27386 0.0115,0.12016 -0.012,0.21973 -0.059,0.24951 -0.043,0.0272 -1.71156,0.0495 -3.70794,0.0495 -1.99639,0 -3.66497,-0.0223 -3.70795,-0.0495 -0.0465,-0.0295 -0.0704,-0.12839 -0.059,-0.24427 l 0.0191,-0.19473 0.5607,-0.12539 c 0.30839,-0.069 0.66694,-0.18616 0.79679,-0.26045 0.31461,-0.17997 0.58496,-0.55025 0.71768,-0.98297 0.10226,-0.3334 0.10861,-0.68568 0.10861,-6.02014 v -5.666013 l -0.97385,0.0039 c -0.89279,0.0036 -1.01378,0.01714 -1.45371,0.162647 -0.6386,0.211214 -1.25495,0.624256 -1.78307,1.194906 -0.37591,0.40618 -0.50136,0.60494 -0.94737,1.50104 -0.28275,0.56807 -0.67644,1.41798 -0.87487,1.88867 -0.74345,1.76351 -0.77026,1.91589 -0.79439,4.51511 -0.0213,2.29899 0.005,2.54795 0.32426,3.02298 0.24575,0.36608 0.75486,0.63816 1.30421,0.69699 l 0.38858,0.0416 v 0.2229 c 0,0.14879 -0.031,0.2348 -0.0934,0.25872 -0.0513,0.0197 -1.71928,0.0358 -3.70652,0.0358 -2.73154,0 -3.63044,-0.0173 -3.68399,-0.0708 z m 18.42626,-0.0121 c -0.0178,-0.0463 -0.0237,-0.15782 -0.0132,-0.2478 0.0182,-0.15564 0.0421,-0.16747 0.48875,-0.2426 1.31944,-0.22194 1.59412,-0.72638 3.23907,-5.94852 0.44635,-1.41699 1.34207,-4.32816 1.69392,-5.50538 0.28819,-0.96419 -0.17189,-1.553026 -1.32612,-1.697235 l -0.33489,-0.04184 0.0179,-0.214137 0.0179,-0.214137 h 2.85812 2.85812 l 0.10513,0.265595 c 0.16997,0.42941 1.20396,3.321014 3.18685,8.912164 0.94065,2.65235 1.07324,2.98807 1.34734,3.41143 0.37937,0.58593 0.72922,0.83216 1.43825,1.01222 l 0.42354,0.10756 v 0.22803 0.22804 h -3.80688 -3.80685 v -0.23207 -0.23208 l 0.45938,-0.0776 c 0.54654,-0.0923 0.84412,-0.2329 1.09302,-0.51639 0.30567,-0.34814 0.34409,-0.6115 0.19001,-1.30271 -0.13646,-0.61218 -0.60866,-2.06677 -0.80471,-2.47888 l -0.11231,-0.23609 -2.41941,-0.0142 c -1.33068,-0.008 -2.45421,0.008 -2.49674,0.0352 -0.0425,0.0272 -0.26422,0.71085 -0.49264,1.51926 -0.41368,1.46412 -0.41507,1.47152 -0.35741,1.89887 0.0378,0.2803 0.1063,0.49985 0.19753,0.63335 0.14982,0.21923 0.51137,0.40679 0.90691,0.47047 0.52538,0.0846 0.51017,0.0749 0.49037,0.31355 l -0.0182,0.21934 -2.49524,0.0154 c -2.11639,0.013 -2.50015,0.003 -2.52755,-0.0688 z m 8.57833,-5.85371 c 0.31883,-0.0495 0.30519,-0.18276 -0.16372,-1.59971 -1.25397,-3.78925 -1.77591,-5.12468 -1.98672,-5.08319 -0.0704,0.0138 -0.32289,0.81601 -0.99989,3.17614 -0.49816,1.7367 -0.89936,3.23731 -0.89156,3.33469 0.0141,0.17612 0.0165,0.17725 0.45684,0.2133 0.47998,0.0393 3.27309,0.007 3.58505,-0.0412 z m 23.57819,-4.30651 c -0.41821,-0.1126 -0.62675,-0.22695 -0.93933,-0.51508 -0.49325,-0.45465 -0.70152,-0.99895 -0.65566,-1.71349 0.051,-0.794022 0.48519,-1.435209 1.21448,-1.793285 0.30567,-0.150083 0.39572,-0.165515 0.95713,-0.164045 0.56144,0.0016 0.64937,0.01707 0.93491,0.165999 0.65533,0.341776 1.05743,0.866509 1.19161,1.555061 0.22106,1.13437 -0.50955,2.22812 -1.66666,2.49503 -0.3434,0.0792 -0.6649,0.0698 -1.03648,-0.0302 z m 1.33664,-0.46552 c 0.35973,-0.18229 0.73703,-0.60493 0.85863,-0.9618 0.14264,-0.41863 0.12113,-1.04465 -0.0484,-1.408751 -0.16547,-0.355362 -0.47282,-0.679273 -0.81929,-0.86342 -0.36364,-0.19328 -1.14211,-0.191263 -1.51822,0.0039 -0.75566,0.392177 -1.12365,1.182171 -0.94702,2.033021 0.22893,1.10271 1.47285,1.70449 2.47431,1.19701 z m -1.58631,-1.62676 v -1.239437 l 0.51643,0.0013 c 0.96461,0.0026 1.27146,0.170492 1.27934,0.699847 0.004,0.24826 -0.0227,0.32244 -0.16898,0.47521 -0.0953,0.0996 -0.21993,0.18102 -0.27687,0.18102 -0.18775,0 -0.1637,0.0867 0.15972,0.57598 0.17601,0.26626 0.32001,0.49791 0.32001,0.51476 0,0.0169 -0.0894,0.0307 -0.19878,0.0307 -0.18737,0 -0.21702,-0.0304 -0.51643,-0.53021 -0.30925,-0.51617 -0.32351,-0.53023 -0.53899,-0.53119 l -0.22133,-8.9e-4 v 0.53119 0.53119 h -0.17706 -0.17706 z m 1.30556,-0.28922 c 0.14292,-0.17649 0.14064,-0.33031 -0.007,-0.478049 -0.0956,-0.09556 -0.19674,-0.118044 -0.53119,-0.118044 h -0.41315 v 0.390293 0.3903 l 0.42025,-0.0237 c 0.35208,-0.0199 0.43825,-0.046 0.53119,-0.16076 z" /><path
       id="path1"
       style="fill:#00a3dd;fill-opacity:1;stroke-width:0.223141"
       d="m 32.132614,90.165414 c -0.638974,-0.15919 -1.447424,-0.62259 -2.039313,-1.16893 -0.48825,-0.45069 -1.003359,-1.32518 -1.226488,-2.0822 -0.244786,-0.8305 -0.251027,-1.08464 -0.233385,-9.50239 l 0.01694,-8.085878 0.13596,-0.295103 c 0.252296,-0.547607 0.672699,-0.847571 1.363425,-0.972822 0.963211,-0.174663 2.004474,0.245955 2.625802,1.060692 0.123214,0.161572 0.403807,0.712526 0.623536,1.224346 0.33069,0.770275 1.479496,3.419345 4.582601,10.567145 0.818204,1.88468 1.19292,2.35426 2.057374,2.57819 0.292503,0.0758 0.811901,0.0911 3.082724,0.0911 h 2.730952 l 0.03586,-0.14289 c 0.08845,-0.35242 -0.03306,-0.43107 -0.682843,-0.44202 -0.48076,-0.008 -0.907865,-0.19546 -1.171931,-0.51412 -0.353368,-0.42643 -0.874943,-1.5739 -3.377028,-7.42951 -1.3732,-3.21369 -2.604615,-6.027079 -2.736475,-6.251966 -0.293687,-0.500886 -0.765828,-0.98769 -1.143614,-1.179129 -0.693072,-0.351205 -0.674121,-0.349637 -4.518133,-0.373792 l -3.533329,-0.0222 0.02874,-1.162262 c 0.03358,-1.358114 0.122165,-1.788278 0.54532,-2.647954 0.483978,-0.983246 1.582819,-1.960163 2.573213,-2.2877 0.246492,-0.08152 0.698001,-0.176801 1.003358,-0.21174 0.384313,-0.04397 4.433568,-0.0581 13.156177,-0.04591 l 12.600989,0.01761 0.45958,0.130936 c 1.2741,0.362999 2.38162,1.291346 2.94193,2.465988 0.45847,0.961151 0.42361,0.315364 0.46684,8.646579 0.0412,7.9467 0.013,9.53935 -0.17553,9.90587 -0.15143,0.29437 -0.38989,0.50894 -0.74177,0.66748 -0.24378,0.10983 -0.40288,0.13348 -0.91483,0.13596 -0.80663,0.004 -1.19439,-0.1332 -1.71883,-0.60779 -0.80177,-0.72556 -1.06046,-1.2501 -4.06499,-8.24235 -0.83691,-1.9477 -1.66831,-3.867769 -1.84756,-4.266825 -0.6708,-1.493391 -1.20063,-2.065242 -2.18596,-2.359346 -0.2478,-0.07396 -0.78641,-0.09567 -2.881843,-0.116153 -1.828854,-0.01787 -2.612831,-0.006 -2.700211,0.04071 -0.124211,0.06648 -0.167288,0.316418 -0.07796,0.452342 0.0253,0.0385 0.301501,0.07743 0.663083,0.09347 0.875856,0.03885 1.18095,0.214938 1.564469,0.902923 0.173606,0.311429 2.003329,4.540739 4.672762,10.800849 0.47064,1.10369 0.94907,2.17935 1.06318,2.39035 0.42274,0.78165 0.85488,1.1587 1.67078,1.45777 l 0.44266,0.16225 3.57077,0.031 3.57077,0.031 -0.001,1.29846 c -10e-4,1.49695 -0.0686,1.9083 -0.43585,2.66458 -0.6608,1.36076 -1.70196,2.24077 -3.02695,2.55841 -0.48247,0.11567 -0.70265,0.11751 -13.504598,0.11298 -10.176869,-0.004 -13.07847,-0.0206 -13.309237,-0.0781 z m 21.124692,-6.62165 c 0.0595,-0.0228 0.0934,-0.10774 0.0934,-0.234 0,-0.24461 -0.12178,-0.32038 -0.51491,-0.32038 -0.34119,0 -0.9002,-0.1371 -1.12447,-0.27578 -0.26766,-0.16551 -0.60714,-0.50878 -0.71954,-0.72758 -0.1063,-0.20692 -1.28378,-2.94088 -2.173369,-5.0463 -2.836177,-6.712465 -3.274225,-7.70848 -3.719449,-8.45713 -0.492517,-0.828171 -0.91881,-1.098849 -1.877389,-1.192066 -0.80628,-0.0784 -5.250332,-0.0773 -5.397277,0.0013 -0.132198,0.07075 -0.15953,0.419209 -0.04039,0.514876 0.04058,0.03258 0.36593,0.07119 0.723006,0.08579 0.743165,0.0304 1.02002,0.134203 1.316197,0.493515 0.287274,0.348515 0.40154,0.595141 2.048898,4.422205 0.86633,2.01262 1.90664,4.42953 2.3118,5.37091 1.604186,3.72732 1.816768,4.16285 2.279718,4.67066 0.287681,0.31555 0.715432,0.56417 1.144337,0.66511 0.249456,0.0587 5.501778,0.0855 5.649478,0.0288 z" /></g></svg>
